<svg width="90" height="108" viewBox="0 0 90 108" fill="none" xmlns="http://www.w3.org/2000/svg">
<path d="M64.8 106.6H25.2C23.9856 106.6 23 105.615 23 104.4C23 103.186 23.9856 102.2 25.2 102.2H64.8C66.0144 102.2 67 103.186 67 104.4C67 105.615 66.0144 106.6 64.8 106.6Z" fill="#BC8762" stroke="#BC8762"/>
<path d="M68.4045 58.2H21.5972C19.6524 58.2 17.8176 57.3508 16.5592 55.868C15.3008 54.3852 14.764 52.4316 15.0852 50.5176L22.42 6.5176C22.948 3.3188 25.6848 1 28.9276 1H61.0741C64.3169 1 67.0537 3.3188 67.5817 6.5132L74.9165 50.5132C75.2377 52.4316 74.7009 54.3808 73.4425 55.8636C72.1885 57.3508 70.3493 58.2 68.4045 58.2ZM28.9276 5.4C27.8496 5.4 26.9344 6.1744 26.7584 7.2348L19.4236 51.2348C19.318 51.8816 19.4896 52.5196 19.9164 53.0212C20.3432 53.5228 20.9372 53.8 21.5972 53.8H68.4089C69.0645 53.8 69.6629 53.5228 70.0897 53.0212C70.5165 52.5196 70.6881 51.886 70.5825 51.2348L63.2477 7.2348C63.0673 6.1744 62.1521 5.4 61.0741 5.4H28.9276Z" fill="#BC8762" stroke="#BC8762"/>
<path d="M45.0008 106.6C43.7864 106.6 42.8008 105.615 42.8008 104.4V82.4002C42.8008 81.1858 43.7864 80.2002 45.0008 80.2002C46.2152 80.2002 47.2008 81.1858 47.2008 82.4002V104.4C47.2008 105.615 46.2152 106.6 45.0008 106.6Z" fill="#BC8762" stroke="#BC8762"/>
<path d="M78.0008 84.5996H12.0008C10.7864 84.5996 9.80078 83.614 9.80078 82.3996V73.5996C9.80078 67.5364 14.7376 62.5996 20.8008 62.5996H69.2008C75.264 62.5996 80.2008 67.5364 80.2008 73.5996V82.3996C80.2008 83.614 79.2152 84.5996 78.0008 84.5996ZM14.2008 80.1996H75.8008V73.5996C75.8008 69.9608 72.8396 66.9996 69.2008 66.9996H20.8008C17.162 66.9996 14.2008 69.9608 14.2008 73.5996V80.1996Z" fill="#BC8762" stroke="#BC8762"/>
<path d="M78.0008 80.2003C76.7864 80.2003 75.8008 79.2147 75.8008 78.0003V64.8003C75.8008 58.7371 80.7376 53.8003 86.8008 53.8003C88.0152 53.8003 89.0008 54.7859 89.0008 56.0003C89.0008 57.2147 88.0152 58.2003 86.8008 58.2003C83.162 58.2003 80.2008 61.1615 80.2008 64.8003V78.0003C80.2008 79.2147 79.2152 80.2003 78.0008 80.2003Z" fill="#BC8762" stroke="#BC8762"/>
<path d="M12 80.2003C10.7856 80.2003 9.8 79.2147 9.8 78.0003V64.8003C9.8 61.1615 6.8388 58.2003 3.2 58.2003C1.9856 58.2003 1 57.2147 1 56.0003C1 54.7859 1.9856 53.8003 3.2 53.8003C9.2632 53.8003 14.2 58.7371 14.2 64.8003V78.0003C14.2 79.2147 13.2144 80.2003 12 80.2003Z" fill="#BC8762" stroke="#BC8762"/>
</svg>
