<svg width="29" height="31" viewBox="0 0 29 31" fill="none" xmlns="http://www.w3.org/2000/svg">
<path d="M1.64667 10.5677C1.39452 10.7565 1.24609 11.0531 1.24609 11.3681V25.7887C1.24609 26.7617 1.64791 27.6869 2.35006 28.363C3.05093 29.0378 3.99371 29.4106 4.96917 29.4106H24.0307C25.0062 29.4106 25.949 29.0378 26.6498 28.363C27.352 27.6869 27.7538 26.7617 27.7538 25.7887V11.3681C27.7538 11.0531 27.6054 10.7565 27.3532 10.5677L15.0994 1.39098C14.744 1.12488 14.2558 1.12488 13.9005 1.39098L1.64667 10.5677Z" stroke="#BC8762" stroke-width="2" stroke-linecap="round" stroke-linejoin="round"/>
<mask id="path-2-outside-1_1095_2391" maskUnits="userSpaceOnUse" x="8.55469" y="13.3013" width="12" height="18" fill="black">
<rect fill="white" x="8.55469" y="13.3013" width="12" height="18"/>
<path d="M10.5547 28.4109V15.3013H18.447V28.4109"/>
</mask>
<path d="M8.55469 28.4109C8.55469 29.5154 9.45012 30.4109 10.5547 30.4109C11.6593 30.4109 12.5547 29.5154 12.5547 28.4109H8.55469ZM10.5547 15.3013V13.3013C9.45012 13.3013 8.55469 14.1967 8.55469 15.3013H10.5547ZM18.447 15.3013H20.447C20.447 14.1967 19.5516 13.3013 18.447 13.3013V15.3013ZM16.447 28.4109C16.447 29.5154 17.3424 30.4109 18.447 30.4109C19.5516 30.4109 20.447 29.5154 20.447 28.4109H16.447ZM12.5547 28.4109V15.3013H8.55469V28.4109H12.5547ZM10.5547 17.3013H18.447V13.3013H10.5547V17.3013ZM16.447 15.3013V28.4109H20.447V15.3013H16.447Z" fill="#BC8762" mask="url(#path-2-outside-1_1095_2391)"/>
</svg>
