<svg width="29" height="29" viewBox="0 0 29 29" fill="none" xmlns="http://www.w3.org/2000/svg">
<path d="M17.8133 6.25C19.0342 6.48821 20.1563 7.08532 21.0359 7.96492C21.9155 8.84452 22.5126 9.96658 22.7508 11.1875L17.8133 6.25ZM17.8133 1.25C20.3499 1.5318 22.7153 2.66772 24.5211 4.47126C26.3269 6.2748 27.4658 8.63876 27.7508 11.175L17.8133 1.25ZM26.5008 21.15V24.9C26.5022 25.2481 26.4309 25.5927 26.2914 25.9117C26.1519 26.2307 25.9474 26.517 25.6909 26.7523C25.4343 26.9877 25.1315 27.1669 24.8017 27.2784C24.4719 27.3899 24.1225 27.4313 23.7758 27.4C19.9293 26.982 16.2345 25.6677 12.9883 23.5625C9.96806 21.6433 7.40744 19.0827 5.48827 16.0625C3.37574 12.8015 2.06107 9.08874 1.65077 5.225C1.61953 4.87933 1.66061 4.53095 1.7714 4.20203C1.88218 3.87311 2.06023 3.57086 2.29423 3.31453C2.52822 3.05819 2.81303 2.85339 3.13051 2.71315C3.44799 2.57292 3.7912 2.50033 4.13827 2.5H7.88827C8.4949 2.49403 9.08301 2.70885 9.54297 3.10442C10.0029 3.49998 10.3034 4.04931 10.3883 4.65C10.5466 5.85008 10.8401 7.02841 11.2633 8.1625C11.4315 8.6099 11.4678 9.09614 11.3682 9.5636C11.2685 10.0311 11.0369 10.4601 10.7008 10.8L9.11327 12.3875C10.8927 15.5169 13.4838 18.1081 16.6133 19.8875L18.2008 18.3C18.5406 17.9639 18.9697 17.7323 19.4372 17.6326C19.9046 17.5329 20.3909 17.5693 20.8383 17.7375C21.9724 18.1607 23.1507 18.4542 24.3508 18.6125C24.958 18.6982 25.5125 19.004 25.9089 19.4719C26.3054 19.9397 26.516 20.537 26.5008 21.15Z" stroke="#BC8762" stroke-width="2" stroke-linecap="round" stroke-linejoin="round"/>
</svg>
