<svg width="29" height="29" viewBox="0 0 29 29" fill="none" xmlns="http://www.w3.org/2000/svg">
<path d="M28.6952 14.3476C28.6952 12.3297 27.2286 10.6469 25.3061 10.3098L24.9505 9.45403C26.0726 7.8553 25.9189 5.6304 24.4924 4.20282C23.1129 2.8234 20.804 2.64406 19.2401 3.7437L18.3844 3.38911C18.0472 1.46653 16.3655 0 14.3476 0C12.3297 0 10.6469 1.46653 10.3098 3.38911L9.45403 3.7437C7.85735 2.62356 5.6304 2.77523 4.20282 4.20282C3.42805 4.97656 3.00172 6.00652 3.00172 7.10206C3.00172 7.95574 3.261 8.77047 3.7437 9.45506L3.38911 10.3098C1.4655 10.6469 0 12.3297 0 14.3476C0 16.3665 1.46653 18.0482 3.38911 18.3854L3.7437 19.2401C2.62253 20.8399 2.77523 23.0648 4.20282 24.4924C5.58019 25.8707 7.89322 26.0511 9.45506 24.9515L10.3108 25.3061C10.648 27.2286 12.3307 28.6952 14.3486 28.6952C16.3675 28.6952 18.0493 27.2286 18.3854 25.3061L19.2411 24.9505C20.8388 26.0726 23.0637 25.921 24.4934 24.4924C25.2681 23.7176 25.6945 22.6887 25.6945 21.5931C25.6945 20.7394 25.4342 19.9247 24.9525 19.2401L25.3071 18.3854C27.2286 18.0493 28.6952 16.3675 28.6952 14.3476C28.6952 14.3486 28.6952 14.3486 28.6952 14.3476ZM24.5959 16.3993C24.1818 16.3993 23.8078 16.6483 23.6489 17.0316L22.8209 19.028C22.662 19.4113 22.7501 19.8519 23.0432 20.145C23.4306 20.5324 23.6438 21.0469 23.6438 21.5941C23.6438 22.1424 23.4306 22.6569 23.0432 23.0443C22.2439 23.8436 20.9413 23.8416 20.144 23.0443C19.8509 22.7512 19.4102 22.663 19.0269 22.8219L17.0296 23.6499C16.6463 23.8088 16.3972 24.1829 16.3972 24.5969C16.3972 25.7273 15.478 26.6465 14.3476 26.6465C13.2172 26.6465 12.2979 25.7273 12.2979 24.5969C12.2979 24.1829 12.0479 23.8078 11.6656 23.6499L9.6672 22.8219C9.28289 22.663 8.84426 22.7512 8.55014 23.0443C7.77537 23.819 6.42669 23.819 5.65192 23.0443C4.85256 22.2449 4.85256 20.9444 5.65192 20.145C5.94502 19.8519 6.03316 19.4113 5.87431 19.028L5.04625 17.0316C4.8874 16.6483 4.51334 16.3993 4.09931 16.3993C2.96893 16.3993 2.04966 15.48 2.04966 14.3486C2.04966 13.2182 2.96893 12.299 4.09931 12.299C4.51334 12.299 4.8874 12.0489 5.04625 11.6666L5.87431 9.66822C6.03316 9.28494 5.94502 8.84426 5.65192 8.55116C5.26454 8.16378 5.05137 7.64931 5.05137 7.10206C5.05137 6.5548 5.26454 6.03931 5.65192 5.65192C6.45129 4.85256 7.7518 4.85256 8.55116 5.65192C8.84426 5.94502 9.28494 6.03111 9.66822 5.87431L11.6656 5.04625C12.0479 4.8874 12.2979 4.51334 12.2979 4.09931C12.2979 2.96893 13.2172 2.04966 14.3476 2.04966C15.478 2.04966 16.3972 2.96893 16.3972 4.09931C16.3972 4.51334 16.6473 4.8874 17.0296 5.04625L19.028 5.87431C19.4113 6.03214 19.8519 5.94605 20.145 5.65192C20.9198 4.87715 22.2685 4.87715 23.0432 5.65192C23.8416 6.45129 23.8416 7.7518 23.0432 8.55116C22.7501 8.84426 22.662 9.28494 22.8209 9.66822L23.6489 11.6666C23.8067 12.0479 24.1818 12.2979 24.5959 12.2979C25.7262 12.2979 26.6455 13.2172 26.6455 14.3476C26.6455 15.479 25.7262 16.3993 24.5959 16.3993Z" fill="#BC8762"/>
<path d="M14.3468 9.22363C11.5213 9.22363 9.22266 11.5223 9.22266 14.3478C9.22266 17.1732 11.5213 19.4719 14.3468 19.4719C14.9125 19.4719 15.3716 19.0138 15.3716 18.4471C15.3716 17.8804 14.9125 17.4223 14.3468 17.4223C12.6517 17.4223 11.2723 16.0428 11.2723 14.3478C11.2723 12.6527 12.6517 11.2733 14.3468 11.2733C16.0419 11.2733 17.4213 12.6527 17.4213 14.3478C17.4213 14.9442 17.2512 15.5222 16.9283 16.0203C16.6199 16.4948 16.7551 17.1292 17.2307 17.4376C17.7052 17.7461 18.3395 17.6118 18.648 17.1353C19.186 16.3052 19.4709 15.3408 19.4709 14.3478C19.4709 11.5223 17.1722 9.22363 14.3468 9.22363Z" fill="#BC8762"/>
</svg>
