<svg width="79" height="125" viewBox="0 0 79 125" fill="none" xmlns="http://www.w3.org/2000/svg">
<mask id="path-1-inside-1_1273_16" fill="white">
<path d="M78.5297 23.6564V111.9C78.5297 119.058 72.7179 124.876 65.5801 124.876H13.7816C6.64382 124.876 0.832031 119.058 0.832031 111.9L0.832031 23.6564C0.832031 16.4983 6.64382 10.6795 13.7816 10.6795H16.3716V8.13079C16.3716 3.83802 19.8576 0.344635 24.1413 0.344635H55.2204C59.5042 0.344635 62.9902 3.83802 62.9902 8.13079V10.6795H65.5801C72.7179 10.6795 78.5297 16.4983 78.5297 23.6564ZM6.01188 111.9C6.01188 116.192 9.49791 119.686 13.7816 119.686H65.5801C69.8638 119.686 73.3499 116.192 73.3499 111.9V23.6564C73.3499 19.3636 69.8638 15.8702 65.5801 15.8702H60.4003C58.9706 15.8702 57.8103 14.7075 57.8103 13.2748V8.13079C57.8103 6.70333 56.6501 5.53541 55.2204 5.53541H24.1413C22.7117 5.53541 21.5514 6.70333 21.5514 8.13079V13.2748C21.5514 14.7075 20.3911 15.8702 18.9615 15.8702H13.7816C9.49791 15.8702 6.01188 19.3636 6.01188 23.6564L6.01188 111.9Z"/>
</mask>
<path d="M78.5297 23.6564V111.9C78.5297 119.058 72.7179 124.876 65.5801 124.876H13.7816C6.64382 124.876 0.832031 119.058 0.832031 111.9L0.832031 23.6564C0.832031 16.4983 6.64382 10.6795 13.7816 10.6795H16.3716V8.13079C16.3716 3.83802 19.8576 0.344635 24.1413 0.344635H55.2204C59.5042 0.344635 62.9902 3.83802 62.9902 8.13079V10.6795H65.5801C72.7179 10.6795 78.5297 16.4983 78.5297 23.6564ZM6.01188 111.9C6.01188 116.192 9.49791 119.686 13.7816 119.686H65.5801C69.8638 119.686 73.3499 116.192 73.3499 111.9V23.6564C73.3499 19.3636 69.8638 15.8702 65.5801 15.8702H60.4003C58.9706 15.8702 57.8103 14.7075 57.8103 13.2748V8.13079C57.8103 6.70333 56.6501 5.53541 55.2204 5.53541H24.1413C22.7117 5.53541 21.5514 6.70333 21.5514 8.13079V13.2748C21.5514 14.7075 20.3911 15.8702 18.9615 15.8702H13.7816C9.49791 15.8702 6.01188 19.3636 6.01188 23.6564L6.01188 111.9Z" fill="#BC8762"/>
<path d="M16.3716 10.6795V32.0128H37.7049V10.6795H16.3716ZM62.9902 10.6795H41.6569V32.0128H62.9902V10.6795ZM57.1964 23.6564L57.1964 111.9H99.8631V23.6564H57.1964ZM57.1964 111.9C57.1964 107.312 60.8991 103.543 65.5801 103.543V146.21C84.5368 146.21 99.8631 130.803 99.8631 111.9H57.1964ZM65.5801 103.543H13.7816L13.7816 146.21H65.5801V103.543ZM13.7816 103.543C18.4627 103.543 22.1654 107.312 22.1654 111.9H-20.5013C-20.5013 130.803 -5.17507 146.21 13.7816 146.21L13.7816 103.543ZM22.1654 111.9L22.1654 23.6564H-20.5013L-20.5013 111.9H22.1654ZM22.1654 23.6564C22.1654 28.2435 18.4627 32.0128 13.7816 32.0128L13.7816 -10.6539C-5.17507 -10.6539 -20.5013 4.75309 -20.5013 23.6564H22.1654ZM13.7816 32.0128H16.3716V-10.6539H13.7816L13.7816 32.0128ZM37.7049 10.6795V8.13079H-4.96176V10.6795H37.7049ZM37.7049 8.13079C37.7049 15.5777 31.682 21.678 24.1413 21.678L24.1413 -20.9887C8.03317 -20.9887 -4.96176 -7.90164 -4.96176 8.13079H37.7049ZM24.1413 21.678H55.2204V-20.9887H24.1413L24.1413 21.678ZM55.2204 21.678C47.6797 21.678 41.6569 15.5777 41.6569 8.13079H84.3235C84.3235 -7.90164 71.3286 -20.9887 55.2204 -20.9887V21.678ZM41.6569 8.13079V10.6795H84.3235L84.3235 8.13079H41.6569ZM62.9902 32.0128H65.5801L65.5801 -10.6539H62.9902V32.0128ZM65.5801 32.0128C60.8991 32.0128 57.1964 28.2435 57.1964 23.6564H99.8631C99.8631 4.75309 84.5368 -10.6539 65.5801 -10.6539L65.5801 32.0128ZM-15.3215 111.9C-15.3215 127.932 -2.32652 141.019 13.7816 141.019L13.7816 98.3524C21.3223 98.3524 27.3452 104.453 27.3452 111.9H-15.3215ZM13.7816 141.019H65.5801V98.3524H13.7816L13.7816 141.019ZM65.5801 141.019C81.6883 141.019 94.6832 127.932 94.6832 111.9H52.0165C52.0165 104.453 58.0394 98.3524 65.5801 98.3524V141.019ZM94.6832 111.9V23.6564H52.0165L52.0165 111.9H94.6832ZM94.6832 23.6564C94.6832 7.62395 81.6883 -5.4631 65.5801 -5.4631L65.5801 37.2036C58.0394 37.2036 52.0165 31.1033 52.0165 23.6564H94.6832ZM65.5801 -5.4631H60.4003V37.2036H65.5801L65.5801 -5.4631ZM60.4003 -5.4631C70.7951 -5.4631 79.1437 2.96783 79.1437 13.2748H36.477C36.477 26.4472 47.1462 37.2036 60.4003 37.2036V-5.4631ZM79.1437 13.2748L79.1437 8.13079H36.477V13.2748H79.1437ZM79.1437 8.13079C79.1437 -5.00854 68.5022 -15.7979 55.2204 -15.7979V26.8687C44.7979 26.8687 36.477 18.4152 36.477 8.13079H79.1437ZM55.2204 -15.7979H24.1413V26.8687H55.2204V-15.7979ZM24.1413 -15.7979C10.8595 -15.7979 0.218082 -5.00854 0.218082 8.13079H42.8848C42.8848 18.4152 34.5639 26.8687 24.1413 26.8687V-15.7979ZM0.218082 8.13079L0.218082 13.2748H42.8848V8.13079H0.218082ZM0.218082 13.2748C0.218082 2.96783 8.56669 -5.4631 18.9615 -5.4631V37.2036C32.2156 37.2036 42.8848 26.4472 42.8848 13.2748H0.218082ZM18.9615 -5.4631H13.7816L13.7816 37.2036H18.9615V-5.4631ZM13.7816 -5.4631C-2.32652 -5.4631 -15.3215 7.62395 -15.3215 23.6564H27.3452C27.3452 31.1033 21.3223 37.2036 13.7816 37.2036L13.7816 -5.4631ZM-15.3215 23.6564L-15.3215 111.9H27.3452L27.3452 23.6564H-15.3215Z" fill="#BC8762" mask="url(#path-1-inside-1_1273_16)"/>
<mask id="path-3-inside-2_1273_16" fill="white">
<path d="M62.644 91.137V106.709C62.644 108.142 61.4837 109.305 60.0541 109.305H18.6153C17.1857 109.305 16.0254 108.142 16.0254 106.709V91.137C16.0254 89.7043 17.1857 88.5416 18.6153 88.5416H60.0541C61.4837 88.5416 62.644 89.7043 62.644 91.137ZM57.4642 104.114V93.7324H21.2052V104.114H57.4642Z"/>
</mask>
<path d="M62.644 91.137V106.709C62.644 108.142 61.4837 109.305 60.0541 109.305H18.6153C17.1857 109.305 16.0254 108.142 16.0254 106.709V91.137C16.0254 89.7043 17.1857 88.5416 18.6153 88.5416H60.0541C61.4837 88.5416 62.644 89.7043 62.644 91.137ZM57.4642 104.114V93.7324H21.2052V104.114H57.4642Z" fill="#BC8762"/>
<path d="M57.4642 104.114V125.447H78.7975V104.114H57.4642ZM57.4642 93.7324H78.7975V72.399H57.4642V93.7324ZM21.2052 93.7324L21.2052 72.399H-0.128098L-0.128098 93.7324H21.2052ZM21.2052 104.114H-0.128098V125.447H21.2052V104.114ZM41.3107 91.137V106.709H83.9773V91.137H41.3107ZM41.3107 106.709C41.3107 96.4023 49.6593 87.9714 60.0541 87.9714V130.638C73.3082 130.638 83.9773 119.882 83.9773 106.709H41.3107ZM60.0541 87.9714H18.6153V130.638H60.0541V87.9714ZM18.6153 87.9714C29.0101 87.9714 37.3587 96.4023 37.3587 106.709H-5.30794C-5.30794 119.882 5.36124 130.638 18.6153 130.638V87.9714ZM37.3587 106.709V91.137H-5.30794V106.709H37.3587ZM37.3587 91.137C37.3587 101.444 29.0101 109.875 18.6153 109.875L18.6153 67.2083C5.36124 67.2083 -5.30794 77.9647 -5.30794 91.137H37.3587ZM18.6153 109.875H60.0541V67.2083H18.6153L18.6153 109.875ZM60.0541 109.875C49.6593 109.875 41.3107 101.444 41.3107 91.137H83.9773C83.9773 77.9647 73.3082 67.2083 60.0541 67.2083V109.875ZM78.7975 104.114V93.7324H36.1308V104.114H78.7975ZM57.4642 72.399H21.2052L21.2052 115.066H57.4642V72.399ZM-0.128098 93.7324V104.114H42.5386V93.7324H-0.128098ZM21.2052 125.447H57.4642V82.7806H21.2052V125.447Z" fill="#BC8762" mask="url(#path-3-inside-2_1273_16)"/>
<mask id="path-5-inside-3_1273_16" fill="white">
<path d="M62.644 61.0291V76.6014C62.644 78.034 61.4837 79.1968 60.0541 79.1968H18.6153C17.1857 79.1968 16.0254 78.034 16.0254 76.6014V61.0291C16.0254 59.5964 17.1857 58.4337 18.6153 58.4337H60.0541C61.4837 58.4337 62.644 59.5964 62.644 61.0291ZM57.4642 74.006V63.6245H21.2052V74.006H57.4642Z"/>
</mask>
<path d="M62.644 61.0291V76.6014C62.644 78.034 61.4837 79.1968 60.0541 79.1968H18.6153C17.1857 79.1968 16.0254 78.034 16.0254 76.6014V61.0291C16.0254 59.5964 17.1857 58.4337 18.6153 58.4337H60.0541C61.4837 58.4337 62.644 59.5964 62.644 61.0291ZM57.4642 74.006V63.6245H21.2052V74.006H57.4642Z" fill="#BC8762"/>
<path d="M57.4642 74.006V95.3393H78.7975V74.006H57.4642ZM57.4642 63.6245H78.7975V42.2911L57.4642 42.2911V63.6245ZM21.2052 63.6245L21.2052 42.2911H-0.128098L-0.128098 63.6245H21.2052ZM21.2052 74.006H-0.128098V95.3393H21.2052V74.006ZM41.3107 61.0291V76.6014H83.9773V61.0291H41.3107ZM41.3107 76.6014C41.3107 66.2943 49.6593 57.8634 60.0541 57.8634V100.53C73.3081 100.53 83.9773 89.7737 83.9773 76.6014H41.3107ZM60.0541 57.8634H18.6153V100.53H60.0541V57.8634ZM18.6153 57.8634C29.0101 57.8634 37.3587 66.2943 37.3587 76.6014H-5.30794C-5.30794 89.7737 5.36127 100.53 18.6153 100.53V57.8634ZM37.3587 76.6014V61.0291H-5.30794V76.6014H37.3587ZM37.3587 61.0291C37.3587 71.3361 29.0101 79.767 18.6153 79.767L18.6153 37.1004C5.36127 37.1004 -5.30794 47.8567 -5.30794 61.0291H37.3587ZM18.6153 79.767H60.0541V37.1004H18.6153L18.6153 79.767ZM60.0541 79.767C49.6593 79.767 41.3107 71.3361 41.3107 61.0291H83.9773C83.9773 47.8567 73.3081 37.1004 60.0541 37.1004V79.767ZM78.7975 74.006V63.6245H36.1308V74.006H78.7975ZM57.4642 42.2911H21.2052L21.2052 84.9578H57.4642V42.2911ZM-0.128098 63.6245V74.006H42.5386V63.6245H-0.128098ZM21.2052 95.3393H57.4642V52.6727H21.2052V95.3393Z" fill="#BC8762" mask="url(#path-5-inside-3_1273_16)"/>
</svg>
