<svg width="55" height="55" viewBox="0 0 55 55" fill="none" xmlns="http://www.w3.org/2000/svg">
<mask id="path-1-inside-1_1052_830" fill="white">
<path d="M30.0667 55H24.9333C23.1985 55 21.7342 53.7006 21.5279 51.975L20.9802 47.6758C19.8871 47.3206 18.8329 46.8829 17.8315 46.3719L14.4077 49.0325C13.019 50.1073 11.0642 49.9835 9.85875 48.7438L6.24938 45.1344C5.01875 43.9404 4.895 41.9856 5.96979 40.5992L8.63042 37.1731C8.11708 36.1717 7.67938 35.1175 7.32646 34.0244L3.01813 33.4767C1.29938 33.2658 0 31.8015 0 30.0667V24.9333C0 23.1985 1.29938 21.7342 3.025 21.5279L7.32417 20.9802C7.67938 19.8871 8.11708 18.8329 8.62813 17.8315L5.96979 14.4077C4.89271 13.019 5.01875 11.0619 6.26083 9.85646L9.87021 6.24708C11.0642 5.01646 13.0212 4.895 14.4054 5.9675L17.8292 8.63042C18.8306 8.11938 19.8848 7.68167 20.9802 7.32646L21.5279 3.01813C21.7342 1.29938 23.1985 0 24.9333 0H30.0667C31.8015 0 33.2658 1.29938 33.4721 3.025L34.0198 7.32417C35.1152 7.67938 36.1694 8.11708 37.1708 8.62813L40.5946 5.9675C41.9856 4.89271 43.9381 5.01646 45.1435 6.25854L48.7529 9.86792C49.9835 11.0619 50.1073 13.0167 49.0325 14.4031L46.3719 17.8292C46.8852 18.8306 47.3229 19.8848 47.6758 20.9779L51.9842 21.5256C53.7006 21.7342 55 23.1985 55 24.9333V30.0667C55 31.8015 53.7006 33.2658 51.975 33.4721L47.6758 34.0198C47.3206 35.1129 46.8829 36.1671 46.3719 37.1685L49.0325 40.5923C50.1096 41.981 49.9835 43.9358 48.7415 45.1413L45.1321 48.7506C43.9381 49.9813 41.981 50.1073 40.5969 49.0302L37.1708 46.3696C36.1694 46.8829 35.1152 47.3206 34.0221 47.6735L33.4744 51.9819C33.2658 53.7006 31.8015 55 30.0667 55ZM17.7146 43.8625C17.9048 43.8625 18.0996 43.9106 18.2738 44.0069C19.5365 44.7127 20.9046 45.281 22.3392 45.6935C22.7792 45.8196 23.1023 46.1954 23.1596 46.6492L23.8013 51.6908C23.87 52.266 24.3673 52.7083 24.9333 52.7083H30.0667C30.6327 52.7083 31.13 52.266 31.1965 51.7023L31.8404 46.6515C31.8977 46.1977 32.2208 45.8219 32.6608 45.6958C34.0954 45.2833 35.4635 44.715 36.7262 44.0092C37.1273 43.7846 37.6269 43.8235 37.9867 44.1054L41.9971 47.2221C42.4577 47.5796 43.104 47.5498 43.4981 47.1442L47.1304 43.5119C47.5452 43.1085 47.5773 42.4623 47.2198 41.9994L44.1031 37.989C43.8213 37.6269 43.7823 37.1296 44.0069 36.7285C44.7127 35.4658 45.281 34.0977 45.6935 32.6631C45.8196 32.2231 46.1954 31.9 46.6492 31.8427L51.6908 31.201C52.266 31.13 52.7083 30.6327 52.7083 30.0667V24.9333C52.7083 24.3673 52.266 23.87 51.7023 23.8035L46.6515 23.1596C46.1977 23.1023 45.8219 22.7792 45.6958 22.3392C45.2833 20.9046 44.715 19.5365 44.0092 18.2738C43.7846 17.8727 43.8213 17.3754 44.1054 17.0133L47.2221 13.0029C47.5819 12.54 47.5498 11.8938 47.1465 11.5042L43.5142 7.87188C43.1131 7.45479 42.4646 7.42271 42.0017 7.7825L37.9912 10.8992C37.6269 11.181 37.1296 11.22 36.7285 10.9954C35.4704 10.2896 34.1023 9.72354 32.6631 9.30875C32.2231 9.18271 31.9 8.80688 31.8427 8.35313L31.201 3.31146C31.13 2.73396 30.6327 2.29167 30.0667 2.29167H24.9333C24.3673 2.29167 23.87 2.73396 23.8035 3.29771L23.1596 8.34854C23.1023 8.80229 22.7792 9.17813 22.3392 9.30646C20.9 9.71896 19.5319 10.2873 18.2738 10.9908C17.8727 11.2177 17.3754 11.1765 17.011 10.8969L13.0006 7.78021C12.5377 7.42042 11.8938 7.4525 11.5019 7.85583L7.86958 11.4904C7.45479 11.8938 7.42271 12.54 7.78021 13.0029L10.8969 17.0133C11.1788 17.3754 11.2177 17.8727 10.9931 18.2738C10.285 19.5365 9.71896 20.9046 9.30646 22.3392C9.18042 22.7792 8.80458 23.1023 8.35083 23.1596L3.30917 23.8013C2.73396 23.87 2.29167 24.3673 2.29167 24.9333V30.0667C2.29167 30.6327 2.73396 31.13 3.29771 31.1965L8.34854 31.8404C8.80229 31.8977 9.17813 32.2208 9.30417 32.6608C9.71667 34.0954 10.285 35.4635 10.9908 36.7262C11.2154 37.1273 11.1788 37.6246 10.8946 37.9867L7.77792 41.9971C7.41813 42.46 7.45021 43.1063 7.85354 43.4958L11.4858 47.1281C11.8869 47.5429 12.5308 47.575 12.9983 47.2175L17.0088 44.1008C17.2173 43.945 17.4648 43.8625 17.7146 43.8625Z"/>
</mask>
<path d="M30.0667 55H24.9333C23.1985 55 21.7342 53.7006 21.5279 51.975L20.9802 47.6758C19.8871 47.3206 18.8329 46.8829 17.8315 46.3719L14.4077 49.0325C13.019 50.1073 11.0642 49.9835 9.85875 48.7438L6.24938 45.1344C5.01875 43.9404 4.895 41.9856 5.96979 40.5992L8.63042 37.1731C8.11708 36.1717 7.67938 35.1175 7.32646 34.0244L3.01813 33.4767C1.29938 33.2658 0 31.8015 0 30.0667V24.9333C0 23.1985 1.29938 21.7342 3.025 21.5279L7.32417 20.9802C7.67938 19.8871 8.11708 18.8329 8.62813 17.8315L5.96979 14.4077C4.89271 13.019 5.01875 11.0619 6.26083 9.85646L9.87021 6.24708C11.0642 5.01646 13.0212 4.895 14.4054 5.9675L17.8292 8.63042C18.8306 8.11938 19.8848 7.68167 20.9802 7.32646L21.5279 3.01813C21.7342 1.29938 23.1985 0 24.9333 0H30.0667C31.8015 0 33.2658 1.29938 33.4721 3.025L34.0198 7.32417C35.1152 7.67938 36.1694 8.11708 37.1708 8.62813L40.5946 5.9675C41.9856 4.89271 43.9381 5.01646 45.1435 6.25854L48.7529 9.86792C49.9835 11.0619 50.1073 13.0167 49.0325 14.4031L46.3719 17.8292C46.8852 18.8306 47.3229 19.8848 47.6758 20.9779L51.9842 21.5256C53.7006 21.7342 55 23.1985 55 24.9333V30.0667C55 31.8015 53.7006 33.2658 51.975 33.4721L47.6758 34.0198C47.3206 35.1129 46.8829 36.1671 46.3719 37.1685L49.0325 40.5923C50.1096 41.981 49.9835 43.9358 48.7415 45.1413L45.1321 48.7506C43.9381 49.9813 41.981 50.1073 40.5969 49.0302L37.1708 46.3696C36.1694 46.8829 35.1152 47.3206 34.0221 47.6735L33.4744 51.9819C33.2658 53.7006 31.8015 55 30.0667 55ZM17.7146 43.8625C17.9048 43.8625 18.0996 43.9106 18.2738 44.0069C19.5365 44.7127 20.9046 45.281 22.3392 45.6935C22.7792 45.8196 23.1023 46.1954 23.1596 46.6492L23.8013 51.6908C23.87 52.266 24.3673 52.7083 24.9333 52.7083H30.0667C30.6327 52.7083 31.13 52.266 31.1965 51.7023L31.8404 46.6515C31.8977 46.1977 32.2208 45.8219 32.6608 45.6958C34.0954 45.2833 35.4635 44.715 36.7262 44.0092C37.1273 43.7846 37.6269 43.8235 37.9867 44.1054L41.9971 47.2221C42.4577 47.5796 43.104 47.5498 43.4981 47.1442L47.1304 43.5119C47.5452 43.1085 47.5773 42.4623 47.2198 41.9994L44.1031 37.989C43.8213 37.6269 43.7823 37.1296 44.0069 36.7285C44.7127 35.4658 45.281 34.0977 45.6935 32.6631C45.8196 32.2231 46.1954 31.9 46.6492 31.8427L51.6908 31.201C52.266 31.13 52.7083 30.6327 52.7083 30.0667V24.9333C52.7083 24.3673 52.266 23.87 51.7023 23.8035L46.6515 23.1596C46.1977 23.1023 45.8219 22.7792 45.6958 22.3392C45.2833 20.9046 44.715 19.5365 44.0092 18.2738C43.7846 17.8727 43.8213 17.3754 44.1054 17.0133L47.2221 13.0029C47.5819 12.54 47.5498 11.8938 47.1465 11.5042L43.5142 7.87188C43.1131 7.45479 42.4646 7.42271 42.0017 7.7825L37.9912 10.8992C37.6269 11.181 37.1296 11.22 36.7285 10.9954C35.4704 10.2896 34.1023 9.72354 32.6631 9.30875C32.2231 9.18271 31.9 8.80688 31.8427 8.35313L31.201 3.31146C31.13 2.73396 30.6327 2.29167 30.0667 2.29167H24.9333C24.3673 2.29167 23.87 2.73396 23.8035 3.29771L23.1596 8.34854C23.1023 8.80229 22.7792 9.17813 22.3392 9.30646C20.9 9.71896 19.5319 10.2873 18.2738 10.9908C17.8727 11.2177 17.3754 11.1765 17.011 10.8969L13.0006 7.78021C12.5377 7.42042 11.8938 7.4525 11.5019 7.85583L7.86958 11.4904C7.45479 11.8938 7.42271 12.54 7.78021 13.0029L10.8969 17.0133C11.1788 17.3754 11.2177 17.8727 10.9931 18.2738C10.285 19.5365 9.71896 20.9046 9.30646 22.3392C9.18042 22.7792 8.80458 23.1023 8.35083 23.1596L3.30917 23.8013C2.73396 23.87 2.29167 24.3673 2.29167 24.9333V30.0667C2.29167 30.6327 2.73396 31.13 3.29771 31.1965L8.34854 31.8404C8.80229 31.8977 9.17813 32.2208 9.30417 32.6608C9.71667 34.0954 10.285 35.4635 10.9908 36.7262C11.2154 37.1273 11.1788 37.6246 10.8946 37.9867L7.77792 41.9971C7.41813 42.46 7.45021 43.1063 7.85354 43.4958L11.4858 47.1281C11.8869 47.5429 12.5308 47.575 12.9983 47.2175L17.0088 44.1008C17.2173 43.945 17.4648 43.8625 17.7146 43.8625Z" fill="white" stroke="#111111" stroke-width="0.8" mask="url(#path-1-inside-1_1052_830)"/>
<path d="M27.4993 38.7587C21.2917 38.7587 16.241 33.708 16.241 27.5003C16.241 21.2927 21.2917 16.242 27.4993 16.242C33.707 16.242 38.7577 21.2927 38.7577 27.5003C38.7577 33.708 33.707 38.7587 27.4993 38.7587ZM27.4993 18.1337C22.3335 18.1337 18.1327 22.3345 18.1327 27.5003C18.1327 32.6662 22.3335 36.867 27.4993 36.867C32.6652 36.867 36.866 32.6662 36.866 27.5003C36.866 22.3345 32.6652 18.1337 27.4993 18.1337Z" fill="white" stroke="#111111" stroke-width="0.4"/>
</svg>
