<svg width="200" height="180" viewBox="0 0 200 180" fill="none" xmlns="http://www.w3.org/2000/svg">
<path d="M48.2759 41.7236C51.934 41.7236 55.4424 40.2583 58.0291 37.6501C60.6158 35.0419 62.069 31.5043 62.069 27.8158V0H34.4828V27.8158C34.4828 31.5043 35.936 35.0419 38.5227 37.6501C41.1094 40.2583 44.6177 41.7236 48.2759 41.7236Z" fill="#F5F5F7"/>
<path d="M6.89655 47.4608V166.895H13.7931V79.9704C13.7931 79.0483 14.1564 78.1639 14.8031 77.5118C15.4498 76.8598 16.3268 76.4935 17.2414 76.4935H72.4138C73.3283 76.4935 74.2054 76.8598 74.8521 77.5118C75.4988 78.1639 75.8621 79.0483 75.8621 79.9704V166.895H193.103V47.4608C188.756 49.0107 184.02 49.0518 179.647 47.5778C175.274 46.1038 171.514 43.199 168.966 39.3247C167.078 42.1935 164.516 44.5468 161.508 46.1748C158.499 47.8027 155.138 48.6547 151.724 48.6547C148.31 48.6547 144.949 47.8027 141.94 46.1748C138.932 44.5468 136.37 42.1935 134.483 39.3247C132.595 42.1935 130.033 44.5468 127.025 46.1748C124.017 47.8027 120.656 48.6547 117.241 48.6547C113.827 48.6547 110.466 47.8027 107.458 46.1748C104.449 44.5468 101.887 42.1935 100 39.3247C98.1127 42.1935 95.5507 44.5468 92.5423 46.1748C89.534 47.8027 86.1728 48.6547 82.7586 48.6547C79.3444 48.6547 75.9833 47.8027 72.9749 46.1748C69.9666 44.5468 67.4045 42.1935 65.5172 39.3247C63.63 42.1935 61.0679 44.5468 58.0596 46.1748C55.0512 47.8027 51.6901 48.6547 48.2759 48.6547C44.8617 48.6547 41.5005 47.8027 38.4922 46.1748C35.4838 44.5468 32.9218 42.1935 31.0345 39.3247C28.4855 43.199 24.7261 46.1038 20.353 47.5778C15.9799 49.0518 11.2438 49.0107 6.89655 47.4608ZM134.483 150.935L130.034 155.455L125.138 150.518L129.621 146.033C130.53 145.108 131.041 143.858 131.041 142.556C131.041 141.253 130.53 140.004 129.621 139.079L127.586 137.027C126.491 135.929 125.623 134.623 125.03 133.185C124.437 131.747 124.132 130.205 124.132 128.648C124.132 127.091 124.437 125.549 125.03 124.111C125.623 122.673 126.491 121.367 127.586 120.269L132.034 115.748L136.931 120.686L132.448 125.171C131.539 126.096 131.028 127.346 131.028 128.648C131.028 129.951 131.539 131.2 132.448 132.125L134.483 134.176C135.577 135.275 136.446 136.581 137.039 138.019C137.632 139.457 137.937 140.999 137.937 142.556C137.937 144.113 137.632 145.655 137.039 147.093C136.446 148.531 135.577 149.837 134.483 150.935ZM155.172 150.935L150.724 155.455L145.828 150.518L150.31 146.033C151.22 145.108 151.73 143.858 151.73 142.556C151.73 141.253 151.22 140.004 150.31 139.079L148.276 137.027C147.181 135.929 146.312 134.623 145.72 133.185C145.127 131.747 144.822 130.205 144.822 128.648C144.822 127.091 145.127 125.549 145.72 124.111C146.312 122.673 147.181 121.367 148.276 120.269L152.724 115.748L157.621 120.686L153.138 125.171C152.228 126.096 151.718 127.346 151.718 128.648C151.718 129.951 152.228 131.2 153.138 132.125L155.172 134.176C156.267 135.275 157.136 136.581 157.729 138.019C158.321 139.457 158.627 140.999 158.627 142.556C158.627 144.113 158.321 145.655 157.729 147.093C157.136 148.531 156.267 149.837 155.172 150.935ZM89.6552 66.0626C89.6552 65.1404 90.0185 64.256 90.6651 63.604C91.3118 62.9519 92.1889 62.5856 93.1034 62.5856H182.759C183.673 62.5856 184.55 62.9519 185.197 63.604C185.844 64.256 186.207 65.1404 186.207 66.0626V135.602C186.207 136.524 185.844 137.408 185.197 138.061C184.55 138.713 183.673 139.079 182.759 139.079H164.655V132.125H179.31V69.5395H96.5517V132.125H117.241V139.079H93.1034C92.1889 139.079 91.3118 138.713 90.6651 138.061C90.0185 137.408 89.6552 136.524 89.6552 135.602V66.0626Z" fill="#F5F5F7"/>
<path d="M82.7586 41.7236C86.4168 41.7236 89.9251 40.2583 92.5118 37.6501C95.0985 35.0419 96.5517 31.5043 96.5517 27.8158V0H68.9655V27.8158C68.9655 31.5043 70.4187 35.0419 73.0054 37.6501C75.5921 40.2583 79.1005 41.7236 82.7586 41.7236Z" fill="#F5F5F7"/>
<path d="M151.724 41.7236C155.382 41.7236 158.891 40.2583 161.477 37.6501C164.064 35.0419 165.517 31.5043 165.517 27.8158V0H137.931V27.8158C137.931 31.5043 139.384 35.0419 141.971 37.6501C144.558 40.2583 148.066 41.7236 151.724 41.7236Z" fill="#F5F5F7"/>
<path d="M117.241 41.7236C120.9 41.7236 124.408 40.2583 126.995 37.6501C129.581 35.0419 131.034 31.5043 131.034 27.8158V0H103.448V27.8158C103.448 31.5043 104.901 35.0419 107.488 37.6501C110.075 40.2583 113.583 41.7236 117.241 41.7236Z" fill="#F5F5F7"/>
<path d="M172.414 0V27.8158C172.414 31.5043 173.867 35.0419 176.454 37.6501C179.04 40.2583 182.549 41.7236 186.207 41.7236C189.865 41.7236 193.373 40.2583 195.96 37.6501C198.547 35.0419 200 31.5043 200 27.8158V0H172.414Z" fill="#F5F5F7"/>
<path d="M68.9655 166.895V83.4473H20.6897V166.895H68.9655ZM27.5862 104.309H34.4828V125.171H27.5862V104.309Z" fill="#F5F5F7"/>
<path d="M13.7931 41.7236C17.4513 41.7236 20.9596 40.2583 23.5463 37.6501C26.133 35.0419 27.5862 31.5043 27.5862 27.8158V0H0V27.8158C0 31.5043 1.4532 35.0419 4.03991 37.6501C6.62661 40.2583 10.1349 41.7236 13.7931 41.7236Z" fill="#F5F5F7"/>
<path d="M0.265252 172.868H199.735V180H0.265252V172.868Z" fill="#F5F5F7"/>
<path d="M123.342 115.097H159.416V158.603H123.342V115.097Z" fill="#F5F5F7"/>
</svg>
