<svg width="67" height="67" viewBox="0 0 67 67" fill="none" xmlns="http://www.w3.org/2000/svg">
<path d="M33.5 22.876C33.5 22.1715 33.2201 21.4958 32.722 20.9977C32.2239 20.4996 31.5482 20.2197 30.8438 20.2197C30.1393 20.2197 29.4636 20.4996 28.9655 20.9977C28.4674 21.4958 28.1875 22.1715 28.1875 22.876V38.8135C28.1875 39.5179 28.4674 40.1936 28.9655 40.6917C29.4636 41.1898 30.1393 41.4697 30.8438 41.4697H41.4688C42.1732 41.4697 42.8489 41.1898 43.347 40.6917C43.8452 40.1936 44.125 39.5179 44.125 38.8135C44.125 38.109 43.8452 37.4333 43.347 36.9352C42.8489 36.4371 42.1732 36.1572 41.4688 36.1572H33.5V22.876ZM1.62501 14.9072C1.62499 12.0233 2.56367 9.21778 4.29917 6.91456C6.03468 4.61135 8.47271 2.9356 11.2448 2.14057C14.017 1.34553 16.9726 1.4744 19.665 2.50771C22.3574 3.54101 24.6403 5.4226 26.1688 7.86814C30.9771 6.62422 36.0229 6.62422 40.8313 7.86814C41.8505 6.23706 43.2118 4.84681 44.8211 3.79354C46.4304 2.74026 48.2493 2.04908 50.152 1.7678C52.0546 1.48652 53.9957 1.62184 55.8409 2.16441C57.6862 2.70699 59.3915 3.64386 60.8391 4.91026C62.2867 6.17665 63.442 7.74235 64.225 9.49908C65.0081 11.2558 65.4002 13.1616 65.3744 15.0848C65.3485 17.008 64.9052 18.9026 64.0752 20.6376C63.2452 22.3727 62.0483 23.9068 60.5672 25.1338C61.9538 28.5338 62.7188 32.2525 62.7188 36.1572C62.7301 42.9912 60.336 49.6113 55.9559 54.8572L61.9431 60.8391C62.427 61.3401 62.6947 62.011 62.6887 62.7075C62.6826 63.4039 62.4033 64.0702 61.9108 64.5627C61.4183 65.0551 60.7521 65.3345 60.0556 65.3406C59.3591 65.3466 58.6882 65.0789 58.1872 64.595L52.2 58.6131C46.9541 62.9932 40.334 65.3873 33.5 65.376C26.666 65.3873 20.0459 62.9932 14.8 58.6131L8.81813 64.6003C8.57116 64.8469 8.27804 65.0425 7.9555 65.1758C7.63295 65.3092 7.2873 65.3777 6.93828 65.3774C6.58927 65.3772 6.24371 65.3082 5.92136 65.1744C5.599 65.0406 5.30616 64.8446 5.05954 64.5977C4.81292 64.3507 4.61736 64.0576 4.48402 63.735C4.35069 63.4125 4.28219 63.0668 4.28243 62.7178C4.28293 62.013 4.56342 61.3371 5.06219 60.8391L11.0441 54.8572C6.66405 49.6113 4.26992 42.9912 4.28126 36.1572C4.28126 32.2578 5.04626 28.5338 6.43282 25.1338C4.92733 23.8888 3.71564 22.3265 2.88448 20.5585C2.05332 18.7906 1.62324 16.8608 1.62501 14.9072ZM14.9063 6.93845C13.3647 6.93798 11.8561 7.38465 10.5633 8.22432C9.2705 9.06399 8.249 10.2606 7.6226 11.6692C6.99621 13.0777 6.79181 14.6377 7.03418 16.1601C7.27655 17.6825 7.95529 19.1019 8.98813 20.2463C11.9401 15.7081 16.0899 12.075 20.9784 9.74876C20.2312 8.86732 19.3009 8.15928 18.2523 7.67394C17.2036 7.1886 16.0618 6.93762 14.9063 6.93845ZM46.0216 9.74876C50.9103 12.0747 55.0601 15.7079 58.0119 20.2463C58.7164 19.4613 59.2581 18.5443 59.6056 17.5484C59.953 16.5525 60.0993 15.4976 60.036 14.4447C59.9726 13.3919 59.7009 12.3621 59.2365 11.415C58.7721 10.468 58.1243 9.62258 57.3308 8.92779C56.5372 8.233 55.6135 7.70267 54.6134 7.36756C53.6133 7.03244 52.5566 6.8992 51.5046 6.97557C50.4527 7.05194 49.4263 7.33639 48.4851 7.81243C47.5438 8.28848 46.7065 8.94664 46.0216 9.74876ZM33.5 12.2509C27.1597 12.2509 21.079 14.7696 16.5957 19.2529C12.1124 23.7362 9.59376 29.8169 9.59376 36.1572C9.59376 42.4975 12.1124 48.5782 16.5957 53.0615C21.079 57.5448 27.1597 60.0635 33.5 60.0635C39.8403 60.0635 45.921 57.5448 50.4043 53.0615C54.8876 48.5782 57.4063 42.4975 57.4063 36.1572C57.4063 29.8169 54.8876 23.7362 50.4043 19.2529C45.921 14.7696 39.8403 12.2509 33.5 12.2509Z" fill="#BC8762" stroke="#111111" stroke-width="1.5"/>
</svg>
