<svg width="121" height="64" viewBox="0 0 121 64" fill="none" xmlns="http://www.w3.org/2000/svg">
<path d="M24.703 24.5968H28.4628V6.41578H24.6904L20 9.67904V13.1061L24.6275 9.90584H24.703V24.5968Z" fill="#BC8762"/>
<path d="M39.6418 25C44.2064 25 46.9729 21.3336 46.9729 15.4622C46.9729 9.59085 44.1813 6 39.6418 6C35.1023 6 32.2981 9.60345 32.2981 15.4748C32.2981 21.3588 35.0771 25 39.6418 25ZM39.6418 21.9509C37.4789 21.9509 36.1586 19.6074 36.1586 15.4748C36.1586 11.38 37.5041 9.04907 39.6418 9.04907C41.7921 9.04907 43.1124 11.3674 43.1124 15.4748C43.1124 19.62 41.8046 21.9509 39.6418 21.9509Z" fill="#BC8762"/>
<path d="M56.4165 25C60.9811 25 63.7476 21.3336 63.7476 15.4622C63.7476 9.59085 60.956 6 56.4165 6C51.877 6 49.0728 9.60345 49.0728 15.4748C49.0728 21.3588 51.8519 25 56.4165 25ZM56.4165 21.9509C54.2536 21.9509 52.9333 19.6074 52.9333 15.4748C52.9333 11.38 54.2788 9.04907 56.4165 9.04907C58.5668 9.04907 59.8871 11.3674 59.8871 15.4748C59.8871 19.62 58.5794 21.9509 56.4165 21.9509Z" fill="#BC8762"/>
<path d="M83.3642 15.7016C83.0121 12.8667 80.7738 10.8004 77.3032 10.8004C73.2793 10.8004 70.7266 13.5219 70.7266 17.8309C70.7266 22.2155 73.2793 24.8866 77.3283 24.8866C80.7487 24.8866 83.0498 22.9715 83.3768 19.9854H79.9564C79.6421 21.258 78.7367 22.0013 77.366 22.0013C75.5427 22.0013 74.4236 20.4642 74.4236 17.8309C74.4236 15.248 75.5427 13.6857 77.3535 13.6857C78.7493 13.6857 79.6295 14.5298 79.9313 15.7016H83.3642Z" fill="#BC8762"/>
<path d="M88.8594 24.5968V15.563H88.9474L92.4306 23.8408H94.9707L98.4665 15.563H98.5545V24.5968H102V11.0902H97.297L93.7761 19.9098H93.6881L90.1672 11.0902H85.4139V24.5968H88.8594Z" fill="#BC8762"/>
<path d="M0.93934 49.9393C0.353553 50.5251 0.353553 51.4749 0.93934 52.0607L10.4853 61.6066C11.0711 62.1924 12.0208 62.1924 12.6066 61.6066C13.1924 61.0208 13.1924 60.0711 12.6066 59.4853L4.12132 51L12.6066 42.5147C13.1924 41.9289 13.1924 40.9792 12.6066 40.3934C12.0208 39.8076 11.0711 39.8076 10.4853 40.3934L0.93934 49.9393ZM120.061 52.0607C120.646 51.4749 120.646 50.5251 120.061 49.9394L110.515 40.3934C109.929 39.8076 108.979 39.8076 108.393 40.3934C107.808 40.9792 107.808 41.9289 108.393 42.5147L116.879 51L108.393 59.4853C107.808 60.0711 107.808 61.0208 108.393 61.6066C108.979 62.1924 109.929 62.1924 110.515 61.6066L120.061 52.0607ZM2 52.5L119 52.5L119 49.5L2 49.5L2 52.5Z" fill="#BC8762"/>
</svg>
