<svg width="91" height="107" viewBox="0 0 91 107" fill="none" xmlns="http://www.w3.org/2000/svg">
<path d="M79.7375 33.275L83.8658 29.1582C85.47 27.5584 85.47 24.9645 83.8658 23.3655C82.2615 21.7658 79.6612 21.7658 78.0569 23.3655L73.9286 27.4823C67.0023 21.7273 58.5858 18.2506 49.6078 17.4367V9.19271H53.5787C55.8473 9.19271 57.6861 7.35822 57.6861 5.09595C57.6861 2.83369 55.8473 1 53.5787 1H37.4213C35.1527 1 33.3139 2.83369 33.3139 5.09595C33.3139 7.35822 35.1527 9.19271 37.4213 9.19271H41.3922V17.4367C18.9183 19.4747 1 38.3018 1 61.6238C1 86.1499 20.9025 106 45.5004 106C70.0943 106 90 86.1531 90 61.6238C90 51.1472 86.3818 41.2258 79.7375 33.275ZM45.4996 97.8073C25.4927 97.8073 9.21484 81.5757 9.21484 61.6238C9.21484 41.6728 25.4927 25.4411 45.4996 25.4411C65.5073 25.4411 81.7844 41.6728 81.7844 61.6238C81.7844 81.5757 65.5073 97.8073 45.4996 97.8073ZM64.5361 42.6413C66.1403 44.241 66.1403 46.835 64.5361 48.4339L48.4044 64.5205C46.8002 66.1203 44.199 66.1203 42.5956 64.5205C40.9913 62.9208 40.9913 60.3269 42.5956 58.7279L58.7264 42.6413C60.3307 41.0415 62.9318 41.0415 64.5361 42.6413Z" fill="#BC8762" stroke="#111111" stroke-width="2"/>
</svg>
